<?xml version="1.0" encoding="UTF-8" standalone="no"?>
<svg
   xmlns:dc="http://purl.org/dc/elements/1.1/"
   xmlns:cc="http://creativecommons.org/ns#"
   xmlns:rdf="http://www.w3.org/1999/02/22-rdf-syntax-ns#"
   xmlns:svg="http://www.w3.org/2000/svg"
   xmlns="http://www.w3.org/2000/svg"
   xmlns:sodipodi="http://sodipodi.sourceforge.net/DTD/sodipodi-0.dtd"
   xmlns:inkscape="http://www.inkscape.org/namespaces/inkscape"
   inkscape:export-ydpi="180"
   inkscape:export-xdpi="180"
   inkscape:export-filename="/home/subway/Pictures/poesiacompilada.com/logo.png"
   sodipodi:docname="logo.svg"
   inkscape:version="1.0 (6e3e5246a0, 2020-05-07)"
   version="1.1"
   id="svg2985"
   height="64px"
   width="64px">
  <defs
     id="defs2987">
    <linearGradient
       id="linearGradient3846">
      <stop
         id="stop3848"
         offset="0"
         style="stop-color:#7e0330;stop-opacity:1;" />
      <stop
         id="stop3850"
         offset="1"
         style="stop-color:#f91166;stop-opacity:1;" />
    </linearGradient>
  </defs>
  <sodipodi:namedview
     inkscape:document-rotation="0"
     inkscape:window-maximized="1"
     inkscape:window-y="24"
     inkscape:window-x="65"
     inkscape:window-height="744"
     inkscape:window-width="1301"
     inkscape:grid-bbox="true"
     inkscape:document-units="px"
     showgrid="true"
     inkscape:current-layer="layer1"
     inkscape:cy="32"
     inkscape:cx="32"
     inkscape:zoom="6.7890625"
     inkscape:pageshadow="2"
     inkscape:pageopacity="0.0"
     borderopacity="1.0"
     bordercolor="#666666"
     pagecolor="#ffffff"
     id="base" />
  <metadata
     id="metadata2990">
    <rdf:RDF>
      <cc:Work
         rdf:about="">
        <dc:format>image/svg+xml</dc:format>
        <dc:type
           rdf:resource="http://purl.org/dc/dcmitype/StillImage" />
        <dc:title />
      </cc:Work>
    </rdf:RDF>
  </metadata>
  <g
     inkscape:groupmode="layer"
     inkscape:label="Layer 1"
     id="layer1">
    <text
       id="text3010"
       y="41"
       x="-1"
       style="font-size:27.96474075000000070px;font-style:normal;font-weight:normal;line-height:125%;letter-spacing:0px;word-spacing:0px;fill:#d2c46c;fill-opacity:1;stroke:none;font-family:Sans"
       xml:space="preserve"><tspan
         y="41"
         x="-1"
         id="tspan3012"
         sodipodi:role="line">&lt;  &gt;</tspan></text>
    <g
       transform="translate(0,-2.3567324)"
       id="text3010-6"
       style="font-size:27.96474075000000070px;font-style:normal;font-weight:normal;line-height:125%;letter-spacing:0px;word-spacing:0px;fill:#867929;fill-opacity:1;stroke:none;font-family:Sans">
      <path
         style="fill:#867929;fill-opacity:1"
         inkscape:connector-curvature="0"
         id="path3876"
         d="m 19.468333,28.236104 -14.0916074,5.01126 14.0916074,4.98395 0,2.485148 -17.5052721,-6.349416 0,-2.266673 17.5052721,-6.349417 0,2.485148" />
      <path
         style="fill:#867929;fill-opacity:1"
         inkscape:connector-curvature="0"
         id="path3878"
         d="m 43.200129,28.236104 0,-2.485148 17.505272,6.349417 0,2.266673 -17.505272,6.349416 0,-2.485148 14.064298,-4.98395 -14.064298,-5.01126" />
    </g>
    <g
       style="fill:#ffffff;fill-opacity:1"
       transform="translate(-87.841197,4.1588032)"
       id="g3909">
      <path
         style="fill:#ffffff;fill-opacity:1;stroke:#000000;stroke-width:0.1;stroke-linecap:butt;stroke-linejoin:miter;stroke-miterlimit:4;stroke-opacity:1;stroke-dasharray:none"
         d="m 113.85961,44.115075 c 0,0 5.96548,-4.934408 6.33372,-7.364787 0,0 -2.35674,1.399309 -2.79862,0.515535 -0.44189,-0.883775 4.49252,-3.387802 4.49252,-3.387802 0,0 3.01956,-5.89183 2.35673,-7.880322 0,0 -3.16686,2.06214 -3.16686,0.736478 0,-1.325661 4.78711,-4.713464 4.78711,-4.713464 0,0 4.19793,-6.333716 3.97699,-8.543153 0,0 -2.94592,2.43038 -3.31416,1.620254 -0.36824,-0.810127 3.60875,-2.79862 3.60875,-2.79862 0,0 2.87227,-5.1553505 1.39931,-6.7019558 l -1.91485,1.693901 1.10472,-2.4303797 c -7.14384,0.9574223 -9.42693,5.8181815 -9.42693,5.8181815 0,0 0.66283,2.209436 0.1473,2.945915 -0.51554,0.736479 -0.81013,-1.841197 -0.81013,-1.841197 0,0 -4.12428,6.849252 -4.63981,8.690449 0,0 0.81012,1.325662 0.81012,1.988493 0,0.662831 -1.39931,-0.883775 -1.39931,-0.883775 0,0 -1.84119,5.155351 -1.84119,6.554661 0,0 2.57767,-2.504028 2.79862,-1.914845 0.22094,0.589183 -2.94592,3.682394 -2.94592,3.682394 -1.47296,10.089758 -1.62025,8.543153 -1.47296,10.237054 0,0 -0.0736,3.903337 0.58919,3.903337 0.66283,0 1.32566,0.07365 1.32566,0.07365 z"
         id="path3905"
         inkscape:connector-curvature="0" />
      <path
         inkscape:connector-curvature="0"
         style="fill:#ffffff;fill-opacity:1;stroke:#000000;stroke-width:0.2;stroke-linecap:butt;stroke-linejoin:miter;stroke-miterlimit:4;stroke-opacity:1;stroke-dasharray:none"
         d="m 126.77905,8.9263521 c -6,0.9999995 -15.3061,40.0299189 -15.3061,40.0299189 l 1,0 c 0,0 7.3061,-37.029919 14.3061,-40.0299189 z"
         id="path3884-1"
         sodipodi:nodetypes="cccc" />
      <path
         style="fill:#ffffff;fill-opacity:1;stroke:#000000;stroke-width:0.1;stroke-linecap:butt;stroke-linejoin:miter;stroke-miterlimit:4;stroke-opacity:1;stroke-dasharray:none"
         d="m 126.47296,8.9263521 c -6,1 -15,39.9999999 -15,39.9999999 l 1,0 c 0,0 7,-37 14,-39.9999999 z"
         id="path3884"
         inkscape:connector-curvature="0" />
    </g>
  </g>
</svg>
