<?xml version="1.0" encoding="UTF-8" standalone="no"?>
<!-- Created with Inkscape (http://www.inkscape.org/) -->

<svg
   xmlns:dc="http://purl.org/dc/elements/1.1/"
   xmlns:cc="http://creativecommons.org/ns#"
   xmlns:rdf="http://www.w3.org/1999/02/22-rdf-syntax-ns#"
   xmlns:svg="http://www.w3.org/2000/svg"
   xmlns="http://www.w3.org/2000/svg"
   xmlns:xlink="http://www.w3.org/1999/xlink"
   xmlns:sodipodi="http://sodipodi.sourceforge.net/DTD/sodipodi-0.dtd"
   xmlns:inkscape="http://www.inkscape.org/namespaces/inkscape"
   width="64px"
   height="64px"
   id="svg2985"
   version="1.1"
   inkscape:version="0.91 r13725"
   sodipodi:docname="named-logo.svg"
   inkscape:export-filename="/home/felipe/Pictures/Poesia/logo.png"
   inkscape:export-xdpi="2880"
   inkscape:export-ydpi="2880">
  <defs
     id="defs2987">
    <linearGradient
       id="linearGradient3846">
      <stop
         style="stop-color:#7e0330;stop-opacity:1;"
         offset="0"
         id="stop3848" />
      <stop
         style="stop-color:#f91166;stop-opacity:1;"
         offset="1"
         id="stop3850" />
    </linearGradient>
    <linearGradient
       inkscape:collect="always"
       xlink:href="#linearGradient3846"
       id="linearGradient3852"
       x1="0"
       y1="64"
       x2="64"
       y2="0"
       gradientUnits="userSpaceOnUse" />
  </defs>
  <sodipodi:namedview
     id="base"
     pagecolor="#ffffff"
     bordercolor="#666666"
     borderopacity="1.0"
     inkscape:pageopacity="0.0"
     inkscape:pageshadow="2"
     inkscape:zoom="13.296875"
     inkscape:cx="35.008226"
     inkscape:cy="19.967098"
     inkscape:current-layer="layer1"
     showgrid="true"
     inkscape:document-units="px"
     inkscape:grid-bbox="true"
     inkscape:window-width="1920"
     inkscape:window-height="1024"
     inkscape:window-x="0"
     inkscape:window-y="30"
     inkscape:window-maximized="1" />
  <metadata
     id="metadata2990">
    <rdf:RDF>
      <cc:Work
         rdf:about="">
        <dc:format>image/svg+xml</dc:format>
        <dc:type
           rdf:resource="http://purl.org/dc/dcmitype/StillImage" />
        <dc:title></dc:title>
      </cc:Work>
    </rdf:RDF>
  </metadata>
  <g
     id="layer1"
     inkscape:label="Layer 1"
     inkscape:groupmode="layer">
    <rect
       style="opacity:0.98999999000000005;fill:url(#linearGradient3852);fill-opacity:1;stroke:none"
       id="rect3018"
       width="64"
       height="64"
       x="0"
       y="0"
       ry="9" />
    <text
       xml:space="preserve"
       style="font-size:27.96474075000000070px;font-style:normal;font-weight:normal;line-height:125%;letter-spacing:0px;word-spacing:0px;fill:#d2c46c;fill-opacity:1;stroke:none;font-family:Sans"
       x="-1"
       y="41"
       id="text3010"
       sodipodi:linespacing="125%"><tspan
         sodipodi:role="line"
         id="tspan3012"
         x="-1"
         y="41">&lt;  &gt;</tspan></text>
    <text
       xml:space="preserve"
       style="font-size:40px;font-style:normal;font-weight:normal;line-height:125%;letter-spacing:0px;word-spacing:0px;fill:#000000;fill-opacity:1;stroke:none;font-family:Sans"
       x="49.344074"
       y="8.2485619"
       id="text3014"
       sodipodi:linespacing="125%"><tspan
         sodipodi:role="line"
         id="tspan3016"
         x="49.344074"
         y="8.2485619" /></text>
    <g
       style="font-size:27.96474075000000070px;font-style:normal;font-weight:normal;line-height:125%;letter-spacing:0px;word-spacing:0px;fill:#867929;fill-opacity:1;stroke:none;font-family:Sans"
       id="text3010-6"
       transform="translate(0,-2.3567324)">
      <path
         d="m 19.468333,28.236104 -14.0916074,5.01126 14.0916074,4.98395 0,2.485148 -17.5052721,-6.349416 0,-2.266673 17.5052721,-6.349417 0,2.485148"
         id="path3876"
         inkscape:connector-curvature="0"
         style="fill:#867929;fill-opacity:1" />
      <path
         d="m 43.200129,28.236104 0,-2.485148 17.505272,6.349417 0,2.266673 -17.505272,6.349416 0,-2.485148 14.064298,-4.98395 -14.064298,-5.01126"
         id="path3878"
         inkscape:connector-curvature="0"
         style="fill:#867929;fill-opacity:1" />
    </g>
    <g
       id="g3909"
       transform="translate(-87.841197,4.1588032)"
       style="fill:#ffffff;fill-opacity:1">
      <path
         inkscape:connector-curvature="0"
         id="path3905"
         d="m 113.85961,44.115075 c 0,0 5.96548,-4.934408 6.33372,-7.364787 0,0 -2.35674,1.399309 -2.79862,0.515535 -0.44189,-0.883775 4.49252,-3.387802 4.49252,-3.387802 0,0 3.01956,-5.89183 2.35673,-7.880322 0,0 -3.16686,2.06214 -3.16686,0.736478 0,-1.325661 4.78711,-4.713464 4.78711,-4.713464 0,0 4.19793,-6.333716 3.97699,-8.543153 0,0 -2.94592,2.43038 -3.31416,1.620254 -0.36824,-0.810127 3.60875,-2.79862 3.60875,-2.79862 0,0 2.87227,-5.1553505 1.39931,-6.7019558 l -1.91485,1.693901 1.10472,-2.4303797 c -7.14384,0.9574223 -9.42693,5.8181815 -9.42693,5.8181815 0,0 0.66283,2.209436 0.1473,2.945915 -0.51554,0.736479 -0.81013,-1.841197 -0.81013,-1.841197 0,0 -4.12428,6.849252 -4.63981,8.690449 0,0 0.81012,1.325662 0.81012,1.988493 0,0.662831 -1.39931,-0.883775 -1.39931,-0.883775 0,0 -1.84119,5.155351 -1.84119,6.554661 0,0 2.57767,-2.504028 2.79862,-1.914845 0.22094,0.589183 -2.94592,3.682394 -2.94592,3.682394 -1.47296,10.089758 -1.62025,8.543153 -1.47296,10.237054 0,0 -0.0736,3.903337 0.58919,3.903337 0.66283,0 1.32566,0.07365 1.32566,0.07365 z"
         style="fill:#ffffff;fill-opacity:1;stroke:#000000;stroke-width:0.1;stroke-linecap:butt;stroke-linejoin:miter;stroke-miterlimit:4;stroke-opacity:1;stroke-dasharray:none" />
      <path
         sodipodi:nodetypes="cccc"
         id="path3884-1"
         d="m 126.77905,8.9263521 c -6,0.9999995 -15.3061,40.0299189 -15.3061,40.0299189 l 1,0 c 0,0 7.3061,-37.029919 14.3061,-40.0299189 z"
         style="fill:#ffffff;fill-opacity:1;stroke:#000000;stroke-width:0.2;stroke-linecap:butt;stroke-linejoin:miter;stroke-miterlimit:4;stroke-opacity:1;stroke-dasharray:none"
         inkscape:connector-curvature="0" />
      <path
         inkscape:connector-curvature="0"
         id="path3884"
         d="m 126.47296,8.9263521 c -6,1 -15,39.9999999 -15,39.9999999 l 1,0 c 0,0 7,-37 14,-39.9999999 z"
         style="fill:#ffffff;fill-opacity:1;stroke:#000000;stroke-width:0.1;stroke-linecap:butt;stroke-linejoin:miter;stroke-miterlimit:4;stroke-opacity:1;stroke-dasharray:none" />
    </g>
    <text
       xml:space="preserve"
       style="font-style:normal;font-weight:normal;font-size:39.36096191px;line-height:125%;font-family:sans-serif;letter-spacing:0px;word-spacing:0px;fill:#d90d58;fill-opacity:0.99215686;stroke:none;stroke-width:1px;stroke-linecap:butt;stroke-linejoin:miter;stroke-opacity:1;"
       x="-0.72432429"
       y="71.485748"
       id="text4149"
       sodipodi:linespacing="125%"><tspan
         sodipodi:role="line"
         id="tspan4151"
         x="-0.72432429"
         y="71.485748"
         style="font-size:7.38017988px;fill:#d90d58;fill-opacity:0.99215686;">Poesia Compilada</tspan></text>
  </g>
</svg>
