<?xml version="1.0" standalone="no"?>
<!DOCTYPE svg PUBLIC "-//W3C//DTD SVG 20010904//EN"
 "http://www.w3.org/TR/2001/REC-SVG-20010904/DTD/svg10.dtd">
<svg version="1.0" xmlns="http://www.w3.org/2000/svg"
 width="368.000000pt" height="341.000000pt" viewBox="0 0 368.000000 341.000000"
 preserveAspectRatio="xMidYMid meet">

<g transform="translate(0.000000,341.000000) scale(0.100000,-0.100000)"
fill="#000000" stroke="none">
<path d="M2500 3305 c-398 -43 -1282 -128 -1653 -159 -93 -8 -170 -16 -172
-18 -1 -2 -4 -662 -6 -1468 l-4 -1464 370 -62 c204 -34 447 -77 540 -95 l170
-34 511 -3 512 -2 6 162 c3 90 11 314 16 498 6 184 19 560 30 835 11 275 24
635 30 800 6 165 17 448 25 629 8 181 15 349 15 373 l0 43 -42 -1 c-24 -1
-180 -16 -348 -34z m-740 -546 c21 -38 -36 -71 -78 -45 -7 4 -12 2 -12 -3 0
-6 -16 -11 -36 -11 -25 0 -35 4 -31 13 2 6 -1 18 -8 24 -17 16 -29 -9 -12 -26
8 -8 1 -11 -28 -13 -105 -4 -195 -9 -244 -14 -53 -6 -54 -6 -48 17 4 13 7 30
7 37 0 23 28 12 39 -15 l11 -28 -4 28 c-2 21 1 27 16 27 15 0 18 -5 13 -20 -9
-27 9 -25 28 3 14 22 22 24 89 23 70 -1 73 -2 70 -23 -2 -13 2 -23 8 -23 7 0
10 12 8 28 l-3 27 84 2 c45 1 86 4 89 7 12 12 32 5 42 -15z m-565 -47 c-18
-41 -23 -48 -30 -40 -9 9 26 88 36 82 5 -3 2 -21 -6 -42z m65 43 c0 -17 -34
-84 -40 -80 -10 6 19 85 32 85 4 0 8 -2 8 -5z m-243 -201 c-3 -3 -12 -4 -19
-1 -8 3 -5 6 6 6 11 1 17 -2 13 -5z m1388 -28 c18 -13 18 -14 -3 -25 -29 -15
-41 -13 -19 3 18 14 18 15 0 25 -10 6 -13 11 -7 11 5 0 19 -6 29 -14z m-117
-24 c2 -12 -1 -22 -6 -22 -6 0 -9 8 -8 18 2 9 -2 21 -8 25 -7 6 -6 7 4 4 8 -2
16 -13 18 -25z m67 3 c0 -23 -34 -33 -46 -14 -10 17 9 41 30 37 9 -2 16 -12
16 -23z m-825 -13 c0 -12 3 -13 12 -4 20 20 38 14 38 -13 0 -27 -18 -33 -38
-13 -9 9 -12 9 -12 0 0 -18 -40 -15 -47 3 -6 17 26 56 40 48 4 -2 7 -12 7 -21z
m510 -3 c0 -12 -7 -19 -20 -19 -11 0 -20 4 -20 10 0 5 7 7 17 3 13 -5 15 -2
11 15 -4 12 -2 20 3 16 5 -3 9 -14 9 -25z m64 22 c4 -5 -2 -8 -11 -7 -10 2
-21 -4 -25 -13 -5 -12 -7 -11 -7 7 -1 15 5 22 18 22 11 0 22 -4 25 -9z m56 0
c0 -5 3 -17 7 -27 4 -11 3 -15 -4 -11 -14 9 -24 47 -12 47 5 0 9 -4 9 -9z m52
-2 c-13 -5 -20 -13 -17 -19 3 -5 1 -10 -4 -10 -13 0 -13 3 -5 24 3 9 16 16 28
15 20 0 20 -1 -2 -10z m-810 -29 c3 -17 0 -30 -6 -30 -6 0 -11 14 -11 30 0 17
3 30 6 30 4 0 9 -13 11 -30z m463 20 c3 -6 -1 -7 -9 -4 -18 7 -21 14 -7 14 6
0 13 -4 16 -10z m57 -7 c-5 -10 -7 -24 -5 -31 3 -9 -3 -7 -16 4 -25 22 -26 25
-6 18 8 -4 15 -2 15 4 0 6 -6 13 -12 15 -7 3 -3 6 10 6 18 1 21 -2 14 -16z
m68 13 c0 -2 -9 -6 -20 -9 -11 -3 -20 -1 -20 4 0 5 9 9 20 9 11 0 20 -2 20 -4z
m-800 -26 c0 -11 0 -23 1 -27 0 -4 -4 -9 -10 -11 -6 -2 -11 10 -11 27 0 17 5
31 10 31 6 0 10 -9 10 -20z m944 4 c3 -8 2 -12 -4 -9 -6 3 -10 10 -10 16 0 14
7 11 14 -7z m126 6 c0 -5 -2 -10 -4 -10 -3 0 -8 5 -11 10 -3 6 -1 10 4 10 6 0
11 -4 11 -10z m-1018 -25 c3 -16 1 -25 -7 -25 -8 0 -10 9 -7 25 2 14 6 25 7
25 1 0 5 -11 7 -25z m66 -3 c2 -12 -1 -22 -7 -22 -6 0 -8 7 -5 15 4 8 1 15 -4
15 -6 0 -13 -8 -15 -17 -3 -11 -5 -7 -6 10 -1 22 3 28 17 25 9 -2 18 -13 20
-26z m52 18 c0 -5 -7 -7 -15 -4 -8 4 -15 1 -15 -5 0 -6 8 -11 17 -11 13 0 14
-3 5 -12 -16 -16 -37 4 -29 26 7 17 37 22 37 6z m92 -20 c5 0 8 7 4 15 -3 8
-1 15 4 15 6 0 10 -9 10 -20 0 -13 -7 -20 -20 -20 -14 0 -20 6 -19 23 1 16 2
18 6 5 2 -10 9 -18 15 -18z m271 -5 c-7 -21 -12 -19 -10 4 0 11 5 18 9 15 4
-3 5 -11 1 -19z m74 9 c-3 -3 -12 -4 -19 -1 -8 3 -5 6 6 6 11 1 17 -2 13 -5z
m542 -91 c11 -21 9 -23 -11 -22 -13 0 -18 3 -12 5 7 3 9 15 6 27 -6 25 0 22
17 -10z m71 18 c0 -5 3 -17 6 -26 6 -13 1 -16 -22 -13 -29 3 -37 19 -13 27 7
2 9 -1 5 -8 -4 -6 -2 -11 3 -11 18 0 12 28 -6 33 -14 4 -12 5 5 6 12 0 22 -3
22 -8z m-304 -12 c3 -6 -2 -18 -12 -27 -15 -14 -16 -14 -6 -1 12 16 7 29 -11
29 -5 0 -7 -13 -5 -30 3 -16 1 -30 -4 -30 -4 0 -8 16 -8 35 0 28 4 35 19 35
11 0 23 -5 27 -11z m60 0 c10 -17 -23 -46 -37 -32 -7 7 -9 19 -6 27 7 18 33
21 43 5z m30 -9 c0 -11 -4 -20 -8 -20 -10 0 -11 24 -1 33 9 9 9 10 9 -13z m78
5 c11 -8 17 -18 13 -21 -3 -3 -16 3 -28 15 -26 24 -14 28 15 6z m-466 -20 c-3
-3 -9 2 -12 12 -6 14 -5 15 5 6 7 -7 10 -15 7 -18z m102 -8 c11 -5 9 -6 -4 -4
-11 1 -21 9 -23 17 -3 10 -2 11 4 4 4 -6 15 -14 23 -17z m44 7 c3 -8 2 -12 -4
-9 -6 3 -10 10 -10 16 0 14 7 11 14 -7z m-759 -129 c0 -46 -12 -55 -25 -19 -8
20 4 64 17 64 5 0 8 -20 8 -45z m47 -110 c2 -20 0 -35 -7 -35 -5 0 -10 16 -11
35 -1 45 13 45 18 0z m-44 -13 c2 -14 -2 -22 -12 -22 -19 0 -28 14 -20 35 9
21 28 14 32 -13z m112 4 c0 -13 -8 -30 -17 -37 -10 -8 -14 -9 -10 -2 4 7 0 16
-9 21 -22 12 -11 42 16 42 14 0 20 -7 20 -24z m49 10 c9 -10 8 -16 -4 -26 -19
-16 -41 1 -32 24 8 20 21 20 36 2z m41 4 c0 -5 -5 -10 -11 -10 -5 0 -7 5 -4
10 3 6 8 10 11 10 2 0 4 -4 4 -10z m-8 -42 c-7 -7 -12 -8 -12 -2 0 6 3 14 7
17 3 4 9 5 12 2 2 -3 -1 -11 -7 -17z m-193 -95 c-2 -24 -2 -25 -6 -5 -2 12 -9
20 -14 16 -5 -3 -7 -10 -4 -15 4 -5 1 -9 -4 -9 -6 0 -11 9 -11 20 0 13 7 20
20 20 15 0 20 -6 19 -27z m53 21 c7 -7 -2 -44 -11 -44 -17 1 -33 20 -28 34 6
16 28 22 39 10z m40 -3 c-11 -7 -10 -9 3 -15 19 -7 11 -26 -11 -26 -8 0 -14
10 -14 25 0 17 5 25 18 25 13 0 14 -2 4 -9z m54 0 c-4 -5 -1 -11 6 -13 15 -5
1 -28 -18 -28 -8 0 -14 10 -14 25 0 16 6 25 16 25 8 0 13 -4 10 -9z m64 -10
c0 -11 -5 -23 -11 -27 -15 -9 -33 12 -26 30 9 23 37 20 37 -3z m31 -34 c-10
-9 -11 -8 -5 6 3 10 9 15 12 12 3 -3 0 -11 -7 -18z m-152 -83 c-9 -11 -6 -14
17 -13 16 0 23 3 17 6 -29 11 -10 22 38 21 46 0 50 -2 47 -21 -2 -12 -9 -22
-15 -21 -7 1 -38 2 -68 3 -51 1 -55 3 -55 26 0 18 4 23 15 19 12 -5 13 -10 4
-20z m-98 7 c-7 -5 -10 -14 -7 -20 4 -6 1 -11 -6 -11 -8 0 -14 9 -14 20 0 14
7 20 21 20 15 0 17 -2 6 -9z m52 -11 c3 -12 0 -20 -7 -20 -6 0 -12 9 -12 20 0
11 3 20 7 20 4 0 9 -9 12 -20z m199 -32 c-7 -7 -12 -8 -12 -2 0 6 3 14 7 17 3
4 9 5 12 2 2 -3 -1 -11 -7 -17z m-48 -80 c-4 -6 -1 -14 6 -18 8 -5 9 -10 2
-14 -13 -8 -36 30 -27 44 4 6 11 8 16 4 5 -3 6 -10 3 -16z m164 -10 c-10 -6
-10 -10 2 -18 13 -8 13 -10 -1 -10 -17 0 -32 36 -23 52 3 5 12 4 20 -3 12 -10
12 -14 2 -21z m-370 15 c-10 -2 -18 -8 -18 -13 0 -5 8 -11 18 -14 13 -4 13 -4
-3 -3 -30 3 -33 37 -3 36 17 -1 18 -3 6 -6z m62 -14 c0 -25 -33 -22 -38 4 -2
12 3 17 17 17 15 0 21 -6 21 -21z m50 1 c0 -13 -7 -20 -18 -20 -11 0 -18 7
-18 20 0 13 7 20 18 20 11 0 18 -7 18 -20z m53 1 c3 -14 0 -19 -12 -18 -20 1
-26 37 -7 37 8 0 16 -9 19 -19z m107 0 c0 -22 -26 -35 -36 -19 -4 7 -2 14 4
16 7 2 10 8 6 13 -3 5 2 9 10 9 9 0 16 -8 16 -19z m58 -9 c2 -12 -2 -22 -8
-22 -7 0 -10 7 -6 15 3 8 1 15 -4 15 -5 0 -11 -8 -13 -17 -3 -11 -5 -7 -6 10
-1 22 3 28 17 25 9 -2 18 -13 20 -26z m110 10 c2 -7 -5 -12 -15 -13 -16 0 -16
-1 2 -9 19 -8 19 -9 -2 -9 -28 -1 -38 15 -22 35 13 16 31 14 37 -4z m42 -26
c0 -3 -4 -8 -10 -11 -5 -3 -10 -1 -10 4 0 6 5 11 10 11 6 0 10 -2 10 -4z
m-387 -89 c-3 -5 1 -13 8 -18 11 -7 11 -9 -2 -9 -18 0 -29 26 -21 49 4 11 6
11 13 0 4 -7 5 -17 2 -22z m-92 14 c-8 -5 -11 -16 -8 -24 4 -10 1 -14 -6 -11
-22 8 -15 44 8 44 15 0 17 -2 6 -9z m52 -21 c3 -12 0 -20 -8 -20 -7 0 -12 11
-12 25 0 28 12 25 20 -5z m167 0 c0 -15 -9 -18 -50 -18 -42 -1 -50 2 -50 18 0
16 8 19 50 18 41 0 50 -3 50 -18z m40 -19 c0 -6 -4 -13 -10 -16 -5 -3 -10 1
-10 9 0 9 5 16 10 16 6 0 10 -4 10 -9z m27 -94 c4 -6 0 -8 -10 -4 -10 3 -17 2
-17 -3 0 -6 5 -10 11 -10 5 0 7 -5 4 -10 -4 -6 -12 -7 -18 -3 -7 4 -24 6 -39
4 -22 -2 -28 2 -28 18 0 18 6 20 45 19 25 0 48 -5 52 -11z m45 -12 c3 -16 1
-25 -7 -25 -7 0 -12 11 -12 25 0 14 3 25 7 25 4 0 10 -11 12 -25z m66 -4 c-2
-9 -11 -17 -21 -19 -21 -4 -35 27 -17 38 19 12 42 0 38 -19z m42 -15 c0 -3 -4
-8 -10 -11 -5 -3 -10 -1 -10 4 0 6 5 11 10 11 6 0 10 -2 10 -4z m-182 -79 c11
2 23 -1 28 -8 5 -9 2 -11 -9 -6 -10 3 -17 2 -17 -2 0 -5 6 -11 13 -14 6 -2 -9
-5 -35 -5 -44 -1 -48 1 -48 23 0 22 3 23 24 15 13 -5 33 -6 44 -3z m62 -27 c5
0 11 8 13 18 3 11 5 7 6 -10 1 -35 -33 -32 -36 3 -1 15 0 17 3 7 3 -10 9 -18
14 -18z m51 -23 c-10 -9 -11 -8 -5 6 3 10 9 15 12 12 3 -3 0 -11 -7 -18z
m-373 -54 c-21 -5 -23 -19 -5 -26 7 -3 5 -6 -5 -6 -12 -1 -18 6 -18 19 0 14 6
20 23 19 16 -1 18 -2 5 -6z m55 -13 c3 -11 2 -20 -3 -20 -4 0 -10 9 -13 20 -3
11 -2 20 3 20 4 0 10 -9 13 -20z m56 -13 c-1 -17 -2 -18 -6 -4 -2 9 -8 17 -13
17 -5 0 -7 -7 -4 -15 4 -8 1 -15 -5 -15 -15 0 -14 37 2 43 18 7 27 -2 26 -26z
m161 3 c0 -31 -17 -39 -38 -18 -9 9 -8 16 6 29 25 26 32 23 32 -11z m-120 10
c-10 -6 -11 -10 -2 -10 20 0 14 -16 -7 -17 -14 -1 -17 3 -14 18 3 10 13 19 22
19 14 0 14 -2 1 -10z m59 -12 c0 -16 -2 -18 -6 -8 -3 8 -11 18 -17 22 -7 5 -4
8 7 8 11 0 17 -7 16 -22z m116 -8 c0 -22 -39 -19 -43 3 -3 15 1 18 20 15 12
-2 23 -10 23 -18z m-319 -84 c3 -8 12 -17 20 -20 8 -3 12 -2 9 3 -3 5 -1 12 4
15 5 3 11 -4 14 -15 5 -19 3 -21 -25 -15 -17 3 -40 6 -52 7 -11 0 -15 3 -8 6
10 4 10 8 1 19 -9 11 -7 14 10 14 12 0 24 -6 27 -14z m89 -6 c-3 -5 -10 -10
-16 -10 -5 0 -9 5 -9 10 0 6 7 10 16 10 8 0 12 -4 9 -10z m15 -20 c0 -5 -2
-10 -4 -10 -3 0 -8 5 -11 10 -3 6 -1 10 4 10 6 0 11 -4 11 -10z m32 -22 c-7
-7 -12 -8 -12 -2 0 14 12 26 19 19 2 -3 -1 -11 -7 -17z m-38 -56 c-6 -4 -10
-17 -9 -29 1 -13 -2 -23 -7 -23 -10 0 -11 44 -1 53 3 4 11 7 17 7 8 0 8 -2 0
-8z m-98 -14 c5 -8 2 -9 -9 -5 -10 3 -17 2 -17 -2 0 -5 6 -12 13 -14 7 -4 6
-6 -4 -6 -17 -1 -32 22 -22 33 10 10 31 7 39 -6z m44 1 c0 -5 -4 -8 -9 -4 -5
3 -12 -3 -14 -12 -4 -14 -5 -13 -6 5 -1 13 5 22 14 22 8 0 15 -5 15 -11z m100
-19 c0 -11 -4 -20 -8 -20 -4 0 -8 9 -8 20 0 11 4 20 8 20 4 0 8 -9 8 -20z m63
11 c4 -1 6 -11 6 -23 -1 -21 -2 -21 -7 -3 l-5 20 -8 -20 c-6 -17 -8 -17 -8 -2
-1 9 -5 17 -11 17 -5 0 -10 4 -10 9 0 5 8 8 18 6 9 -2 20 -4 25 -4z m-213
-101 c0 -5 -6 -9 -12 -7 -7 1 -12 -4 -10 -11 1 -8 -2 -11 -7 -7 -14 8 -2 35
15 35 8 0 14 -4 14 -10z m28 -11 c-2 -6 3 -14 11 -17 9 -3 12 0 8 10 -4 11 2
15 26 14 22 -1 33 -7 35 -18 3 -14 -4 -17 -42 -16 -41 0 -65 16 -49 32 9 9 13
7 11 -5z m224 -19 c3 -17 0 -30 -6 -30 -6 0 -11 14 -11 30 0 17 3 30 6 30 4 0
9 -13 11 -30z m-92 0 c0 -11 -7 -20 -16 -20 -9 0 -12 -5 -8 -12 4 -7 3 -8 -4
-4 -7 4 -12 18 -12 32 0 17 5 24 20 24 13 0 20 -7 20 -20z m40 0 c0 -11 -4
-20 -8 -20 -4 0 -8 9 -8 20 0 11 4 20 8 20 4 0 8 -9 8 -20z m170 -10 c0 -20
-5 -30 -15 -30 -24 0 -30 29 -9 45 25 19 24 19 24 -15z m-52 -3 c2 -12 -3 -17
-17 -17 -12 0 -21 5 -21 11 0 5 5 7 12 3 8 -5 9 -2 5 10 -5 12 -3 16 5 14 7
-3 14 -12 16 -21z m108 -2 c3 -8 3 -19 -1 -25 -10 -16 -45 7 -39 25 8 19 33
19 40 0z m44 -29 c0 -3 -4 -8 -10 -11 -5 -3 -10 -1 -10 4 0 6 5 11 10 11 6 0
10 -2 10 -4z m-428 -46 c3 -17 0 -30 -6 -30 -6 0 -11 14 -11 30 0 17 3 30 6
30 4 0 9 -13 11 -30z m-42 -10 c0 -11 -6 -20 -14 -20 -20 0 -29 17 -15 26 8 4
9 3 5 -4 -4 -7 -2 -12 3 -12 6 0 11 7 11 15 0 8 2 15 5 15 3 0 5 -9 5 -20z
m102 -15 c-2 -14 -9 -28 -15 -32 -5 -3 -7 -1 -4 4 4 6 0 16 -8 23 -18 15 -11
30 14 30 14 0 17 -6 13 -25z m56 2 c2 -12 -3 -17 -17 -17 -15 0 -21 6 -21 21
0 25 33 22 38 -4z m43 4 c-7 -5 -10 -14 -7 -20 4 -6 1 -11 -7 -11 -10 0 -13 7
-10 20 3 11 13 20 22 20 13 0 13 -2 2 -9z m52 -20 c3 -12 0 -18 -7 -15 -6 2
-12 13 -12 24 0 23 12 17 19 -9z m57 14 c0 -2 -7 -5 -15 -9 -9 -3 -15 0 -15 9
0 9 6 12 15 9 8 -4 15 -7 15 -9z m56 -10 c-6 -18 5 -20 21 -4 15 15 43 4 43
-16 0 -13 -10 -15 -67 -9 -66 6 -98 14 -55 14 13 0 22 6 22 15 0 9 9 15 21 15
15 0 19 -5 15 -15z m96 -47 c-7 -7 -12 -8 -12 -2 0 14 12 26 19 19 2 -3 -1
-11 -7 -17z m-471 -27 c-7 -5 -10 -14 -7 -20 4 -6 2 -11 -3 -11 -6 0 -11 9
-11 20 0 12 7 20 18 20 13 0 14 -2 3 -9z m94 -21 c1 -11 -2 -20 -7 -20 -4 0
-8 12 -8 27 0 30 13 24 15 -7z m-55 10 c0 -5 -5 -10 -11 -10 -5 0 -7 5 -4 10
3 6 8 10 11 10 2 0 4 -4 4 -10z m110 -25 c5 3 11 1 15 -5 3 -5 -3 -10 -14 -10
-15 0 -21 6 -20 23 1 17 2 18 6 4 2 -9 8 -15 13 -12z m53 -4 c3 -12 0 -18 -7
-15 -6 2 -12 13 -12 24 0 23 12 17 19 -9z m64 -6 c1 -16 1 -16 -3 -2 -3 9 -10
17 -16 17 -5 0 -8 -7 -4 -15 3 -8 1 -15 -4 -15 -6 0 -10 9 -10 21 0 27 34 22
37 -6z m435 -50 c-7 -37 -22 -41 -19 -5 1 16 7 30 13 30 7 0 9 -10 6 -25z
m-699 -30 c0 -15 -5 -31 -11 -37 -7 -7 -10 4 -10 37 0 33 3 44 10 37 6 -6 11
-22 11 -37z m7 -80 c0 -2 -5 -16 -12 -30 -16 -35 -29 -31 -15 5 10 25 27 42
27 25z m40 -35 c-7 -16 -17 -30 -22 -30 -5 0 -7 4 -4 9 3 4 10 21 16 36 6 15
13 25 17 22 3 -4 0 -20 -7 -37z m103 -59 c-1 -1 -6 0 -12 4 -13 7 -15 58 -3
69 6 7 21 -63 15 -73z m65 39 c0 -23 -4 -30 -18 -30 -10 0 -22 5 -26 12 -5 8
-1 9 12 4 15 -6 17 -5 7 5 -19 19 -16 39 5 39 14 0 19 -8 20 -30z m97 12 c6
-4 11 -20 12 -36 1 -19 -2 -25 -9 -18 -6 6 -17 8 -24 5 -10 -4 -14 4 -14 26 0
30 13 39 35 23z m105 -47 c0 -19 -4 -35 -10 -35 -5 0 -10 16 -10 35 0 19 5 35
10 35 6 0 10 -16 10 -35z m-50 -5 c0 -5 -4 -10 -10 -10 -5 0 -10 5 -10 10 0 6
5 10 10 10 6 0 10 -4 10 -10z"/>
<path d="M1731 2744 c0 -11 3 -14 6 -6 3 7 2 16 -1 19 -3 4 -6 -2 -5 -13z"/>
<path d="M1390 2725 c0 -8 2 -15 4 -15 2 0 6 7 10 15 3 8 1 15 -4 15 -6 0 -10
-7 -10 -15z"/>
<path d="M1445 2731 c-3 -5 -1 -12 5 -16 5 -3 10 1 10 9 0 18 -6 21 -15 7z"/>
<path d="M1630 2730 c0 -5 5 -10 10 -10 6 0 10 5 10 10 0 6 -4 10 -10 10 -5 0
-10 -4 -10 -10z"/>
<path d="M2320 2505 c0 -8 5 -15 10 -15 6 0 10 7 10 15 0 8 -4 15 -10 15 -5 0
-10 -7 -10 -15z"/>
<path d="M1495 2470 c3 -5 8 -10 11 -10 2 0 4 5 4 10 0 6 -5 10 -11 10 -5 0
-7 -4 -4 -10z"/>
<path d="M2132 2369 c2 -6 8 -10 13 -10 5 0 11 4 13 10 2 6 -4 11 -13 11 -9 0
-15 -5 -13 -11z"/>
<path d="M1330 2110 c0 -5 5 -10 10 -10 6 0 10 5 10 10 0 6 -4 10 -10 10 -5 0
-10 -4 -10 -10z"/>
<path d="M1231 1984 c0 -11 3 -14 6 -6 3 7 2 16 -1 19 -3 4 -6 -2 -5 -13z"/>
<path d="M1391 1984 c0 -11 3 -14 6 -6 3 7 2 16 -1 19 -3 4 -6 -2 -5 -13z"/>
<path d="M1380 1870 c0 -5 5 -10 10 -10 6 0 10 5 10 10 0 6 -4 10 -10 10 -5 0
-10 -4 -10 -10z"/>
<path d="M1220 1750 c0 -5 5 -10 10 -10 6 0 10 5 10 10 0 6 -4 10 -10 10 -5 0
-10 -4 -10 -10z"/>
<path d="M1380 1630 c0 -5 5 -10 10 -10 6 0 10 5 10 10 0 6 -4 10 -10 10 -5 0
-10 -4 -10 -10z"/>
<path d="M1555 1500 c4 -6 11 -8 16 -5 14 9 11 15 -7 15 -8 0 -12 -5 -9 -10z"/>
<path d="M1430 1269 c0 -5 5 -7 10 -4 6 3 10 8 10 11 0 2 -4 4 -10 4 -5 0 -10
-5 -10 -11z"/>
<path d="M1480 1270 c0 -5 5 -10 10 -10 6 0 10 5 10 10 0 6 -4 10 -10 10 -5 0
-10 -4 -10 -10z"/>
<path d="M1250 940 c0 -5 5 -10 10 -10 6 0 10 5 10 10 0 6 -4 10 -10 10 -5 0
-10 -4 -10 -10z"/>
<path d="M1320 930 c0 -5 5 -10 10 -10 6 0 10 5 10 10 0 6 -4 10 -10 10 -5 0
-10 -4 -10 -10z"/>
<path d="M1530 910 c0 -5 5 -10 10 -10 6 0 10 5 10 10 0 6 -4 10 -10 10 -5 0
-10 -4 -10 -10z"/>
<path d="M1590 910 c0 -5 5 -10 10 -10 6 0 10 5 10 10 0 6 -4 10 -10 10 -5 0
-10 -4 -10 -10z"/>
<path d="M1265 820 c3 -5 8 -10 11 -10 2 0 4 5 4 10 0 6 -5 10 -11 10 -5 0 -7
-4 -4 -10z"/>
<path d="M1320 820 c0 -5 5 -10 10 -10 6 0 10 5 10 10 0 6 -4 10 -10 10 -5 0
-10 -4 -10 -10z"/>
<path d="M1580 790 c0 -5 7 -10 15 -10 8 0 15 5 15 10 0 6 -7 10 -15 10 -8 0
-15 -4 -15 -10z"/>
</g>
</svg>
